<svg xmlns="http://www.w3.org/2000/svg" xmlns:xlink="http://www.w3.org/1999/xlink" viewBox="0 0 622.274 198.221"><defs><style>.cls-1{fill:none;}.cls-2{fill:#f2f2f2;}.cls-3{opacity:0.4;}.cls-4{fill:#080e22;}.cls-5{clip-path:url(#clip-path);}.cls-6{fill:#94dbed;}.cls-7{fill:#0016a1;}.cls-8{fill:#0d3eca;}.cls-9{fill:url(#linear-gradient);}.cls-10{fill:url(#linear-gradient-2);}</style><clipPath id="clip-path"><rect class="cls-1" width="622.274" height="198.106" transform="translate(622.274 198.106) rotate(180)"/></clipPath><linearGradient id="linear-gradient" x1="416.444" y1="133.288" x2="562.968" y2="133.288" gradientUnits="userSpaceOnUse"><stop offset="0" stop-color="#94dbed"/><stop offset="0.776" stop-color="#447ed8"/><stop offset="0.995" stop-color="#0016a1"/></linearGradient><linearGradient id="linear-gradient-2" x1="76.075" y1="132.262" x2="155.173" y2="132.262" gradientUnits="userSpaceOnUse"><stop offset="0" stop-color="#0d3eca"/><stop offset="0.167" stop-color="#336ad4"/><stop offset="0.347" stop-color="#5693dd"/><stop offset="0.524" stop-color="#71b2e4"/><stop offset="0.695" stop-color="#84c9e9"/><stop offset="0.857" stop-color="#90d6ec"/><stop offset="1" stop-color="#94dbed"/></linearGradient></defs><g id="Layer_2" data-name="Layer 2"><g id="OBJECTS"><rect class="cls-2" width="622.274" height="198.106" transform="translate(622.274 198.106) rotate(180)"/><polygon class="cls-4" points="0 198.106 318.594 198.106 232.781 0 0 0 0 198.106"/><g class="cls-5"><polygon class="cls-6" points="400.169 181.155 333.169 25.661 299.669 25.661 366.669 181.155 400.169 181.155"/><polygon class="cls-7" points="356.714 198.221 307.137 83.163 240.137 83.163 289.714 198.221 356.714 198.221"/><polygon class="cls-8" points="307.137 73.651 275.402 0 257.935 0 289.67 73.651 307.137 73.651"/><polygon class="cls-7" points="259.947 43.646 241.14 0 189.635 0 208.441 43.646 259.947 43.646"/><polygon class="cls-6" points="622.274 57.891 622.274 34.496 605.977 34.353 622.274 72.175 622.274 57.891"/><polygon class="cls-7" points="622.274 92.7 609.793 63.734 575.559 63.734 609.793 143.183 622.274 143.699 622.274 92.7"/><polygon class="cls-8" points="609.793 58.874 584.425 0 575.5 0 600.868 58.874 609.793 58.874"/><polygon class="cls-7" points="585.681 43.543 566.919 0 540.603 0 559.365 43.543 585.681 43.543"/></g><path class="cls-8" d="M430.571,73.743V53.706h3.895V70.329h10.217v3.414Z"/><path class="cls-8" d="M452.923,74.026a8.112,8.112,0,0,1-3.245-.621,7.271,7.271,0,0,1-2.441-1.68,7.414,7.414,0,0,1-1.539-2.441,7.972,7.972,0,0,1-.536-2.906,8.056,8.056,0,0,1,.536-2.935A7.414,7.414,0,0,1,447.237,61a7.269,7.269,0,0,1,2.441-1.679,8.1,8.1,0,0,1,3.245-.622,8,8,0,0,1,3.231.622A7.31,7.31,0,0,1,458.581,61a7.4,7.4,0,0,1,1.538,2.441,8.035,8.035,0,0,1,.536,2.935,7.951,7.951,0,0,1-.536,2.906,7.522,7.522,0,0,1-1.523,2.441,7.138,7.138,0,0,1-2.428,1.68A8.112,8.112,0,0,1,452.923,74.026Zm-3.866-7.648a5.143,5.143,0,0,0,.3,1.792,4.389,4.389,0,0,0,.818,1.4,3.662,3.662,0,0,0,1.229.917,3.744,3.744,0,0,0,3.047,0,3.668,3.668,0,0,0,1.228-.917,4.361,4.361,0,0,0,.818-1.411,5.265,5.265,0,0,0,.3-1.807,5.169,5.169,0,0,0-.3-1.777,4.355,4.355,0,0,0-.818-1.412,3.682,3.682,0,0,0-1.228-.917,3.605,3.605,0,0,0-1.524-.324,3.476,3.476,0,0,0-1.523.338,3.845,3.845,0,0,0-1.229.932,4.35,4.35,0,0,0-.818,1.411A5.175,5.175,0,0,0,449.057,66.378Z"/><path class="cls-8" d="M463,76.622a7.457,7.457,0,0,0,.932.212,5.069,5.069,0,0,0,.762.07,1.614,1.614,0,0,0,.676-.141,1.45,1.45,0,0,0,.565-.494,4.831,4.831,0,0,0,.509-.973q.253-.621.536-1.553l-5.842-14.788h3.894l4.007,11.515,3.556-11.515h3.557l-6.209,17.724a5.311,5.311,0,0,1-1.834,2.54,5.167,5.167,0,0,1-3.218.987,6.248,6.248,0,0,1-.917-.07A5.95,5.95,0,0,1,463,79.9Z"/><path class="cls-8" d="M481.878,74.026a5.616,5.616,0,0,1-2-.353,4.8,4.8,0,0,1-1.608-.988,4.6,4.6,0,0,1-1.059-1.482,4.483,4.483,0,0,1-.381-1.862,4.106,4.106,0,0,1,.466-1.933,4.437,4.437,0,0,1,1.3-1.51,6.459,6.459,0,0,1,1.99-.974,8.679,8.679,0,0,1,2.54-.352,10.933,10.933,0,0,1,1.933.169,7.922,7.922,0,0,1,1.68.48v-.847a2.966,2.966,0,0,0-.833-2.257,3.46,3.46,0,0,0-2.469-.791,6.544,6.544,0,0,0-2.315.423,10.8,10.8,0,0,0-2.314,1.242l-1.157-2.4A10.922,10.922,0,0,1,483.8,58.7a7.205,7.205,0,0,1,4.953,1.567,5.738,5.738,0,0,1,1.764,4.529v4.6a1.324,1.324,0,0,0,.212.847.922.922,0,0,0,.691.282v3.217a8.4,8.4,0,0,1-1.665.2,2.519,2.519,0,0,1-1.651-.48,2.061,2.061,0,0,1-.72-1.27l-.084-.818a6.543,6.543,0,0,1-2.4,1.975A6.886,6.886,0,0,1,481.878,74.026Zm1.072-2.766a4.929,4.929,0,0,0,1.821-.339,3.3,3.3,0,0,0,1.341-.9,1.359,1.359,0,0,0,.621-1.072V67.253a9.21,9.21,0,0,0-1.468-.409,7.872,7.872,0,0,0-1.525-.156,4.039,4.039,0,0,0-2.4.663,1.993,1.993,0,0,0-.932,1.68,2.017,2.017,0,0,0,.735,1.594A2.661,2.661,0,0,0,482.95,71.26Z"/><path class="cls-8" d="M494.013,53.142H497.8V69a1.863,1.863,0,0,0,.395,1.27,1.415,1.415,0,0,0,1.129.452,2.857,2.857,0,0,0,.748-.113,5.065,5.065,0,0,0,.776-.282l.508,2.878a7.308,7.308,0,0,1-1.779.565,9.743,9.743,0,0,1-1.834.2,3.783,3.783,0,0,1-2.751-.945,3.585,3.585,0,0,1-.974-2.7Z"/><path class="cls-8" d="M511.849,72.981a16.857,16.857,0,0,1-1.863.678,7.817,7.817,0,0,1-2.314.338,5.388,5.388,0,0,1-1.481-.2,3.243,3.243,0,0,1-1.214-.635,3.1,3.1,0,0,1-.833-1.129,4.083,4.083,0,0,1-.31-1.679V61.862h-1.947V58.955h1.947v-4.8h3.781v4.8h3.105v2.907h-3.105v7.225a1.338,1.338,0,0,0,.41,1.114,1.556,1.556,0,0,0,1,.325,3.478,3.478,0,0,0,1.157-.2q.564-.2.9-.339Z"/><path class="cls-8" d="M514.134,76.622a7.5,7.5,0,0,0,.932.212,5.046,5.046,0,0,0,.761.07,1.62,1.62,0,0,0,.678-.141,1.45,1.45,0,0,0,.565-.494,4.889,4.889,0,0,0,.507-.973q.254-.621.536-1.553l-5.841-14.788h3.894l4.008,11.515,3.556-11.515h3.555l-6.208,17.724a5.307,5.307,0,0,1-1.835,2.54,5.157,5.157,0,0,1-3.216.987,6.251,6.251,0,0,1-.918-.07,5.975,5.975,0,0,1-.974-.24Z"/><path class="cls-2" d="M29.754,62.791a11.206,11.206,0,0,1,.714-3.91A10.482,10.482,0,0,1,35.9,52.964a10.331,10.331,0,0,1,4.5-.944,9.824,9.824,0,0,1,5.157,1.309,8.364,8.364,0,0,1,3.24,3.407l-3.225,2.221a5.536,5.536,0,0,0-1.034-1.536,5.2,5.2,0,0,0-1.309-.989,5.91,5.91,0,0,0-1.46-.532,6.907,6.907,0,0,0-1.491-.168,5.658,5.658,0,0,0-2.753.639,6.049,6.049,0,0,0-1.947,1.658,7.313,7.313,0,0,0-1.172,2.313,8.736,8.736,0,0,0-.4,2.57,8.4,8.4,0,0,0,.457,2.754,7.317,7.317,0,0,0,1.293,2.327,6.48,6.48,0,0,0,2.008,1.613,5.487,5.487,0,0,0,2.572.608,6.736,6.736,0,0,0,1.52-.182,5.7,5.7,0,0,0,2.83-1.6,4.715,4.715,0,0,0,.974-1.5L49.1,68.906a6.505,6.505,0,0,1-1.475,2.145,9.5,9.5,0,0,1-2.161,1.567,11.027,11.027,0,0,1-2.57.973,11.261,11.261,0,0,1-2.678.335,9.19,9.19,0,0,1-4.229-.974,11,11,0,0,1-3.3-2.54,11.8,11.8,0,0,1-2.16-3.56A11.108,11.108,0,0,1,29.754,62.791Z"/><path class="cls-2" d="M58.9,74.048a8.734,8.734,0,0,1-3.5-.67,7.854,7.854,0,0,1-2.632-1.81,8.021,8.021,0,0,1-1.658-2.632,8.573,8.573,0,0,1-.578-3.133,8.669,8.669,0,0,1,.578-3.165,8.017,8.017,0,0,1,1.658-2.631A7.854,7.854,0,0,1,55.4,58.2a8.751,8.751,0,0,1,3.5-.67,8.642,8.642,0,0,1,3.483.67A7.881,7.881,0,0,1,65,60.007a8.017,8.017,0,0,1,1.658,2.631,8.69,8.69,0,0,1,.578,3.165,8.594,8.594,0,0,1-.578,3.133,8.132,8.132,0,0,1-1.643,2.632,7.688,7.688,0,0,1-2.616,1.81A8.741,8.741,0,0,1,58.9,74.048ZM54.732,65.8a5.577,5.577,0,0,0,.319,1.932,4.726,4.726,0,0,0,.882,1.506,3.938,3.938,0,0,0,1.324.988,4.031,4.031,0,0,0,3.286,0,3.934,3.934,0,0,0,1.323-.988,4.7,4.7,0,0,0,.883-1.521,5.682,5.682,0,0,0,.319-1.948,5.587,5.587,0,0,0-.319-1.916,4.689,4.689,0,0,0-.883-1.522,3.934,3.934,0,0,0-1.323-.988A3.888,3.888,0,0,0,58.9,61a3.733,3.733,0,0,0-1.643.365,4.122,4.122,0,0,0-1.324,1,4.693,4.693,0,0,0-.882,1.521A5.616,5.616,0,0,0,54.732,65.8Z"/><path class="cls-2" d="M84.791,73.743H80.714V64.8a4.668,4.668,0,0,0-.669-2.8,2.2,2.2,0,0,0-1.857-.883,3.5,3.5,0,0,0-1.247.244,4.61,4.61,0,0,0-1.2.684A5.587,5.587,0,0,0,74.72,63.1a4.165,4.165,0,0,0-.67,1.338v9.31H69.973V57.8h3.682v2.951a6.037,6.037,0,0,1,2.556-2.373,8.205,8.205,0,0,1,3.772-.852,4.81,4.81,0,0,1,2.435.548,3.962,3.962,0,0,1,1.46,1.43,5.989,5.989,0,0,1,.714,2.008,13.143,13.143,0,0,1,.2,2.282Z"/><path class="cls-2" d="M97.751,72.922a18.226,18.226,0,0,1-2.008.73,8.418,8.418,0,0,1-2.495.365,5.79,5.79,0,0,1-1.6-.213,3.514,3.514,0,0,1-1.308-.684,3.348,3.348,0,0,1-.9-1.217,4.389,4.389,0,0,1-.335-1.81V60.935h-2.1V57.8h2.1V52.629h4.077V57.8h3.347v3.134H93.187v7.788a1.45,1.45,0,0,0,.441,1.2,1.685,1.685,0,0,0,1.08.35,3.754,3.754,0,0,0,1.248-.213q.608-.213.973-.365Z"/><path class="cls-2" d="M104.231,74.048a6.035,6.035,0,0,1-2.16-.381,5.159,5.159,0,0,1-1.734-1.065,4.933,4.933,0,0,1-1.142-1.6A4.849,4.849,0,0,1,98.785,69a4.421,4.421,0,0,1,.5-2.084,4.792,4.792,0,0,1,1.4-1.628,6.978,6.978,0,0,1,2.145-1.049,9.375,9.375,0,0,1,2.738-.38,11.773,11.773,0,0,1,2.084.182,8.523,8.523,0,0,1,1.811.517v-.913a3.2,3.2,0,0,0-.9-2.433,3.733,3.733,0,0,0-2.662-.852,7.055,7.055,0,0,0-2.495.456,11.545,11.545,0,0,0-2.494,1.339l-1.248-2.586a11.771,11.771,0,0,1,6.633-2.039,7.769,7.769,0,0,1,5.339,1.689,6.19,6.19,0,0,1,1.9,4.883v4.959a1.442,1.442,0,0,0,.227.913,1,1,0,0,0,.746.3v3.468a9.079,9.079,0,0,1-1.8.213,2.717,2.717,0,0,1-1.78-.517,2.212,2.212,0,0,1-.775-1.369l-.092-.882a7.06,7.06,0,0,1-2.586,2.13A7.442,7.442,0,0,1,104.231,74.048Zm1.155-2.982a5.3,5.3,0,0,0,1.963-.365,3.561,3.561,0,0,0,1.446-.974,1.466,1.466,0,0,0,.669-1.156V66.746a10.013,10.013,0,0,0-1.582-.442,8.657,8.657,0,0,0-1.643-.167,4.359,4.359,0,0,0-2.586.715,2.147,2.147,0,0,0-1.005,1.81,2.182,2.182,0,0,0,.791,1.72A2.875,2.875,0,0,0,105.386,71.066Z"/><path class="cls-2" d="M116.34,65.772a8.664,8.664,0,0,1,.578-3.164,7.691,7.691,0,0,1,1.674-2.616,8.136,8.136,0,0,1,2.646-1.795,8.755,8.755,0,0,1,3.5-.67,8.389,8.389,0,0,1,4.457,1.126,7.2,7.2,0,0,1,2.754,2.951l-3.986,1.217a3.583,3.583,0,0,0-1.37-1.354A3.827,3.827,0,0,0,124.707,61a3.89,3.89,0,0,0-1.644.35,4.041,4.041,0,0,0-1.323.973,4.517,4.517,0,0,0-.882,1.506,5.689,5.689,0,0,0-.319,1.947,5.452,5.452,0,0,0,.334,1.948,4.911,4.911,0,0,0,.9,1.521,3.938,3.938,0,0,0,1.324.988,3.8,3.8,0,0,0,1.613.35,3.91,3.91,0,0,0,2.023-.547,3.083,3.083,0,0,0,1.293-1.339l3.985,1.217a6.689,6.689,0,0,1-2.708,2.981,8.5,8.5,0,0,1-4.533,1.157,8.741,8.741,0,0,1-3.5-.67,7.929,7.929,0,0,1-4.335-4.457A8.526,8.526,0,0,1,116.34,65.772Z"/><path class="cls-2" d="M144.055,72.922a18.126,18.126,0,0,1-2.007.73,8.42,8.42,0,0,1-2.5.365,5.788,5.788,0,0,1-1.6-.213,3.514,3.514,0,0,1-1.308-.684,3.326,3.326,0,0,1-.9-1.217,4.389,4.389,0,0,1-.335-1.81V60.935h-2.1V57.8h2.1V52.629h4.077V57.8h3.347v3.134h-3.347v7.788a1.45,1.45,0,0,0,.44,1.2,1.687,1.687,0,0,0,1.08.35,3.75,3.75,0,0,0,1.248-.213q.609-.213.974-.365Z"/><path class="cls-2" d="M146.154,51.534h4.077v17.1A2.01,2.01,0,0,0,150.657,70a1.528,1.528,0,0,0,1.217.487,3.051,3.051,0,0,0,.806-.121,5.536,5.536,0,0,0,.837-.305l.547,3.1a7.859,7.859,0,0,1-1.916.609,10.541,10.541,0,0,1-1.977.213,4.085,4.085,0,0,1-2.967-1.019,3.869,3.869,0,0,1-1.05-2.906Z"/><path class="cls-2" d="M163.222,74.048a8.847,8.847,0,0,1-3.468-.655,7.813,7.813,0,0,1-4.335-4.4,8.382,8.382,0,0,1-.594-3.133,8.867,8.867,0,0,1,.578-3.21,7.827,7.827,0,0,1,1.674-2.647,7.962,7.962,0,0,1,2.662-1.81,8.864,8.864,0,0,1,3.514-.67,8.645,8.645,0,0,1,3.483.67,8.019,8.019,0,0,1,2.617,1.795A7.642,7.642,0,0,1,171,62.608a8.721,8.721,0,0,1,.562,3.1q0,.4-.014.761a3.1,3.1,0,0,1-.077.608H159.145a4.746,4.746,0,0,0,.457,1.674,4.1,4.1,0,0,0,2.251,2.038,4.286,4.286,0,0,0,1.522.274,4.711,4.711,0,0,0,2.3-.593,3.147,3.147,0,0,0,1.475-1.567l3.5.974a7.116,7.116,0,0,1-2.814,3A8.715,8.715,0,0,1,163.222,74.048Zm4.138-9.615a4.247,4.247,0,0,0-1.323-2.875,4.151,4.151,0,0,0-5.644.016,4.155,4.155,0,0,0-.9,1.247,4.375,4.375,0,0,0-.411,1.612Z"/><path class="cls-2" d="M180.077,74.048a12.332,12.332,0,0,1-3.925-.639,9.586,9.586,0,0,1-3.286-1.826l1.521-2.555a13.1,13.1,0,0,0,2.845,1.567,7.627,7.627,0,0,0,2.754.532,3.481,3.481,0,0,0,1.916-.456,1.47,1.47,0,0,0,.7-1.308,1.308,1.308,0,0,0-.821-1.248A17.715,17.715,0,0,0,179.1,67.2q-1.551-.426-2.646-.821a6.763,6.763,0,0,1-1.765-.9,3.071,3.071,0,0,1-.974-1.156,3.687,3.687,0,0,1-.3-1.567,4.967,4.967,0,0,1,.471-2.19,4.789,4.789,0,0,1,1.324-1.659,6.123,6.123,0,0,1,1.993-1.049,8.077,8.077,0,0,1,2.479-.365,10.662,10.662,0,0,1,3.363.517,8.219,8.219,0,0,1,2.875,1.673l-1.644,2.465a9.534,9.534,0,0,0-2.357-1.339,6.473,6.473,0,0,0-2.267-.426,3.289,3.289,0,0,0-1.734.426,1.482,1.482,0,0,0-.7,1.369,1.317,1.317,0,0,0,.167.7,1.48,1.48,0,0,0,.533.487,5.174,5.174,0,0,0,.958.411c.4.131.887.269,1.475.41q1.644.426,2.815.852a7.685,7.685,0,0,1,1.917.974,3.462,3.462,0,0,1,1.094,1.262A3.87,3.87,0,0,1,186.527,69a4.438,4.438,0,0,1-1.734,3.7A7.478,7.478,0,0,1,180.077,74.048Z"/><path class="cls-2" d="M195.2,74.048a12.332,12.332,0,0,1-3.925-.639,9.586,9.586,0,0,1-3.286-1.826l1.521-2.555a13.1,13.1,0,0,0,2.845,1.567,7.627,7.627,0,0,0,2.754.532,3.481,3.481,0,0,0,1.916-.456,1.47,1.47,0,0,0,.7-1.308,1.308,1.308,0,0,0-.821-1.248,17.715,17.715,0,0,0-2.678-.913q-1.551-.426-2.646-.821a6.763,6.763,0,0,1-1.765-.9,3.058,3.058,0,0,1-.973-1.156,3.672,3.672,0,0,1-.305-1.567,4.954,4.954,0,0,1,.472-2.19,4.775,4.775,0,0,1,1.323-1.659,6.123,6.123,0,0,1,1.993-1.049A8.077,8.077,0,0,1,194.8,57.5a10.662,10.662,0,0,1,3.363.517,8.219,8.219,0,0,1,2.875,1.673L199.4,62.152a9.517,9.517,0,0,0-2.357-1.339,6.473,6.473,0,0,0-2.267-.426,3.292,3.292,0,0,0-1.734.426,1.482,1.482,0,0,0-.7,1.369,1.308,1.308,0,0,0,.168.7,1.468,1.468,0,0,0,.532.487,5.174,5.174,0,0,0,.958.411c.395.131.887.269,1.475.41q1.644.426,2.815.852a7.685,7.685,0,0,1,1.917.974,3.474,3.474,0,0,1,1.095,1.262,3.884,3.884,0,0,1,.35,1.719,4.438,4.438,0,0,1-1.734,3.7A7.476,7.476,0,0,1,195.2,74.048Z"/><g id="Layer_2-2" data-name="Layer 2"><path class="cls-9" d="M512.924,108.388a1.75,1.75,0,0,1,1.75-1.75h6.437a1.75,1.75,0,0,1,0,3.5h-6.437A1.751,1.751,0,0,1,512.924,108.388Zm31.52,0v59.275a5.731,5.731,0,0,1-5.725,5.725H422.169a5.732,5.732,0,0,1-5.725-5.725V98.937a5.755,5.755,0,0,1,5.725-5.749H538.716a5.754,5.754,0,0,1,5.728,5.749Zm-3.5,59.272V110.141H533.78a1.75,1.75,0,0,1,0-3.5h7.164V98.913a2.133,2.133,0,0,0-.043-.43,2.253,2.253,0,0,0-2.2-1.8H422.191a2.254,2.254,0,0,0-2.2,1.8,2.288,2.288,0,0,0-.043.43v7.729h82.059a1.75,1.75,0,0,1,0,3.5H419.944v57.521a2.228,2.228,0,0,0,2.225,2.225H538.716a2.227,2.227,0,0,0,2.228-2.225Zm-8.685-41.393a9.625,9.625,0,1,1-9.625-9.625h0a9.635,9.635,0,0,1,9.622,9.628Zm-3.5,0a6.125,6.125,0,1,0-6.125,6.125,6.125,6.125,0,0,0,6.125-6.125Zm-90.5,13.932a9.636,9.636,0,0,0-9.625,9.625,1.75,1.75,0,1,0,3.5,0,6.125,6.125,0,1,1,6.125,6.125,1.75,1.75,0,0,0,0,3.5,9.625,9.625,0,0,0,0-19.25Zm37.749,9.625a9.625,9.625,0,1,1-9.625-9.625h0a9.635,9.635,0,0,1,9.625,9.628Zm-3.5,0a6.125,6.125,0,1,0-6.125,6.125,6.125,6.125,0,0,0,6.125-6.125Zm31.624,0a9.625,9.625,0,1,1-9.625-9.625h0a9.635,9.635,0,0,1,9.625,9.628Zm-3.5,0a6.125,6.125,0,1,0-6.125,6.125,6.125,6.125,0,0,0,6.125-6.125Zm31.624,0a9.625,9.625,0,1,1-9.625-9.625h0a9.635,9.635,0,0,1,9.625,9.628Zm-3.5,0a6.125,6.125,0,1,0-6.125,6.125,6.125,6.125,0,0,0,6.125-6.125Zm-99.312-24.086a1.75,1.75,0,0,1,.929-2.857l4.187-.957,2.2-3.686a1.749,1.749,0,0,1,3,0l2.2,3.686,4.188.957a1.75,1.75,0,0,1,.929,2.857l-2.826,3.234.393,4.276a1.75,1.75,0,0,1-2.431,1.766l-3.954-1.686-3.948,1.687a1.75,1.75,0,0,1-2.431-1.766l.385-4.276Zm4.562-.1,1.392,1.592a1.75,1.75,0,0,1,.425,1.308l-.189,2.1,1.943-.83a1.747,1.747,0,0,1,1.375,0l1.944.831-.189-2.105a1.754,1.754,0,0,1,.425-1.308l1.392-1.592-2.062-.471a1.756,1.756,0,0,1-1.112-.808l-1.085-1.814-1.084,1.814a1.749,1.749,0,0,1-1.112.809Zm23.562.1a1.75,1.75,0,0,1,.929-2.857l4.187-.957,2.2-3.686a1.749,1.749,0,0,1,3,0l2.2,3.686,4.187.957a1.75,1.75,0,0,1,.929,2.857l-2.825,3.234.385,4.277a1.75,1.75,0,0,1-2.431,1.766l-3.946-1.687-3.949,1.687a1.751,1.751,0,0,1-2.43-1.767l.385-4.277Zm4.563-.1,1.391,1.592a1.75,1.75,0,0,1,.425,1.308l-.189,2.1,1.944-.831a1.747,1.747,0,0,1,1.375,0l1.944.831-.189-2.1a1.758,1.758,0,0,1,.425-1.308l1.387-1.59-2.061-.471a1.756,1.756,0,0,1-1.112-.808l-1.085-1.815-1.085,1.815a1.753,1.753,0,0,1-1.112.808Zm23.562.1a1.75,1.75,0,0,1,.929-2.857l4.187-.957,2.2-3.686a1.749,1.749,0,0,1,3,0l2.2,3.686,4.187.957a1.75,1.75,0,0,1,.929,2.857l-2.825,3.234.385,4.277a1.75,1.75,0,0,1-2.431,1.766l-3.947-1.687-3.949,1.687a1.752,1.752,0,0,1-2.431-1.766l.385-4.277Zm4.563-.1,1.388,1.594a1.75,1.75,0,0,1,.425,1.308l-.189,2.105,1.944-.831a1.747,1.747,0,0,1,1.375,0l1.944.831-.189-2.105a1.758,1.758,0,0,1,.425-1.308l1.391-1.592-2.061-.471a1.756,1.756,0,0,1-1.112-.808l-1.085-1.815-1.085,1.815a1.753,1.753,0,0,1-1.112.808Z"/></g><path class="cls-10" d="M151.082,146.593a3.013,3.013,0,0,1-.532-.047,3.127,3.127,0,0,1-2.516-3.621,67.511,67.511,0,0,0,.959-10.664,66.459,66.459,0,0,0-10.469-35.256,3.157,3.157,0,0,1,.906-4.333,3.065,3.065,0,0,1,4.275.919,72.781,72.781,0,0,1,11.468,38.639v.063a73.862,73.862,0,0,1-1.05,11.7A3.1,3.1,0,0,1,151.082,146.593Zm-7.377,24.339a72.253,72.253,0,0,0,6.116-11.814,3.148,3.148,0,0,0-1.683-4.088,3.073,3.073,0,0,0-4.032,1.705,65.911,65.911,0,0,1-5.582,10.782,3.158,3.158,0,0,0,.906,4.334,3.044,3.044,0,0,0,1.681.507A3.078,3.078,0,0,0,143.705,170.932Zm-15.013-8.164a56.453,56.453,0,0,0,9.333-30.466c0-.027,0-.055,0-.082a56.447,56.447,0,0,0-9.333-30.465,3.063,3.063,0,0,0-4.286-.859,3.158,3.158,0,0,0-.848,4.346,48.187,48.187,0,0,1,0,54.039,3.158,3.158,0,0,0,.848,4.345,3.034,3.034,0,0,0,1.717.531A3.075,3.075,0,0,0,128.692,162.768ZM115.085,149.7a5.376,5.376,0,0,0,3.521-3.307,38.655,38.655,0,0,0-4.519-35.614,3.064,3.064,0,0,0-4.3-.777,3.16,3.16,0,0,0-.766,4.362,32.749,32.749,0,0,1,5.835,17.964,32.326,32.326,0,0,1-1.649,10.759L84.862,120.989a4.66,4.66,0,0,0-4.336-.755,4.738,4.738,0,0,0-3.056,3.2,36.272,36.272,0,0,0-1.395,9.927c0,7.415,4.182,14.04,4.36,14.319a3.061,3.061,0,0,0,4.265.925,3.161,3.161,0,0,0,.924-4.327c-.033-.053-3.369-5.388-3.369-10.917a30.048,30.048,0,0,1,.616-6.017l27.518,21.449a5.213,5.213,0,0,0,3.216,1.119A5.276,5.276,0,0,0,115.085,149.7Z"/></g></g></svg>