<svg xmlns="http://www.w3.org/2000/svg" xmlns:xlink="http://www.w3.org/1999/xlink" viewBox="0 0 622.27 198.22"><defs><style>.cls-1{fill:none;}.cls-14,.cls-2{fill:#f2f2f2;}.cls-3{opacity:0.4;}.cls-4{fill:#080e22;}.cls-5{clip-path:url(#clip-path);}.cls-6{fill:#94dbed;}.cls-7{fill:#0016a1;}.cls-8,.cls-9{fill:#0d3eca;}.cls-9{font-size:28.22px;}.cls-14,.cls-9{font-family:Raleway-Bold, Raleway;font-weight:700;}.cls-10{letter-spacing:-0.02em;}.cls-11{letter-spacing:-0.02em;}.cls-12{letter-spacing:-0.01em;}.cls-13{letter-spacing:-0.03em;}.cls-14{font-size:30.42px;}.cls-15{letter-spacing:-0.01em;}.cls-16{fill:url(#linear-gradient);}.cls-17{fill:url(#linear-gradient-2);}</style><clipPath id="clip-path"><rect class="cls-1" width="622.27" height="198.11" transform="translate(622.27 198.11) rotate(180)"/></clipPath><linearGradient id="linear-gradient" x1="416.44" y1="133.29" x2="562.97" y2="133.29" gradientUnits="userSpaceOnUse"><stop offset="0" stop-color="#94dbed"/><stop offset="0.78" stop-color="#447ed8"/><stop offset="0.99" stop-color="#0016a1"/></linearGradient><linearGradient id="linear-gradient-2" x1="76.08" y1="132.26" x2="155.17" y2="132.26" gradientUnits="userSpaceOnUse"><stop offset="0" stop-color="#0d3eca"/><stop offset="0.17" stop-color="#336ad4"/><stop offset="0.35" stop-color="#5693dd"/><stop offset="0.52" stop-color="#71b2e4"/><stop offset="0.69" stop-color="#84c9e9"/><stop offset="0.86" stop-color="#90d6ec"/><stop offset="1" stop-color="#94dbed"/></linearGradient></defs><g id="Layer_2" data-name="Layer 2"><g id="OBJECTS"><rect class="cls-2" width="622.27" height="198.11" transform="translate(622.27 198.11) rotate(180)"/><polygon class="cls-4" points="0 198.11 318.59 198.11 232.78 0 0 0 0 198.11"/><g class="cls-5"><polygon class="cls-6" points="400.17 181.16 333.17 25.66 299.67 25.66 366.67 181.16 400.17 181.16"/><polygon class="cls-7" points="356.71 198.22 307.14 83.16 240.14 83.16 289.71 198.22 356.71 198.22"/><polygon class="cls-8" points="307.14 73.65 275.4 0 257.94 0 289.67 73.65 307.14 73.65"/><polygon class="cls-7" points="259.95 43.65 241.14 0 189.63 0 208.44 43.65 259.95 43.65"/><polygon class="cls-6" points="622.27 57.89 622.27 34.5 605.98 34.35 622.27 72.17 622.27 57.89"/><polygon class="cls-7" points="622.27 92.7 609.79 63.73 575.56 63.73 609.79 143.18 622.27 143.7 622.27 92.7"/><polygon class="cls-8" points="609.79 58.87 584.42 0 575.5 0 600.87 58.87 609.79 58.87"/><polygon class="cls-7" points="585.68 43.54 566.92 0 540.6 0 559.37 43.54 585.68 43.54"/></g><text class="cls-9" transform="translate(419.41 73.74)"><tspan class="cls-10">L</tspan><tspan class="cls-11" x="15.89" y="0">o</tspan><tspan class="cls-12" x="32.48" y="0">y</tspan><tspan x="47.64" y="0">alt</tspan><tspan class="cls-13" x="83.62" y="0">y</tspan></text><text class="cls-14" transform="translate(28.81 73.74)">Co<tspan class="cls-15" x="39.31" y="0">n</tspan><tspan x="57.53" y="0">tactless</tspan></text><text/><text/><g id="Layer_2-2" data-name="Layer 2"><path class="cls-16" d="M512.92,108.39a1.75,1.75,0,0,1,1.75-1.75h6.44a1.75,1.75,0,0,1,0,3.5h-6.44A1.76,1.76,0,0,1,512.92,108.39Zm31.52,0v59.27a5.73,5.73,0,0,1-5.72,5.73H422.17a5.75,5.75,0,0,1-5.73-5.73V98.94a5.76,5.76,0,0,1,5.73-5.75H538.72a5.74,5.74,0,0,1,5.72,5.75Zm-3.5,59.27V110.14h-7.16a1.75,1.75,0,0,1,0-3.5h7.16V98.91a2.09,2.09,0,0,0,0-.43,2.26,2.26,0,0,0-2.2-1.8H422.19a2.27,2.27,0,0,0-2.2,1.8,2.09,2.09,0,0,0,0,.43v7.73H502a1.75,1.75,0,0,1,0,3.5H419.94v57.52a2.24,2.24,0,0,0,2.23,2.23H538.72a2.22,2.22,0,0,0,2.22-2.23Zm-8.68-41.39a9.63,9.63,0,1,1-9.63-9.63h0a9.65,9.65,0,0,1,9.63,9.63Zm-3.5,0a6.13,6.13,0,1,0-6.13,6.12,6.12,6.12,0,0,0,6.13-6.12Zm-90.5,13.93a9.64,9.64,0,0,0-9.63,9.62,1.75,1.75,0,1,0,3.5,0,6.13,6.13,0,1,1,6.13,6.13,1.75,1.75,0,0,0,0,3.5,9.63,9.63,0,0,0,0-19.25ZM476,149.82a9.63,9.63,0,1,1-9.63-9.62h0a9.63,9.63,0,0,1,9.63,9.63Zm-3.5,0a6.13,6.13,0,1,0-6.13,6.13,6.12,6.12,0,0,0,6.13-6.13Zm31.62,0a9.63,9.63,0,1,1-9.62-9.62h0a9.63,9.63,0,0,1,9.62,9.63Zm-3.5,0a6.13,6.13,0,1,0-6.12,6.13,6.12,6.12,0,0,0,6.12-6.13Zm31.63,0a9.63,9.63,0,1,1-9.63-9.62h0a9.63,9.63,0,0,1,9.63,9.63Zm-3.5,0a6.13,6.13,0,1,0-6.13,6.13,6.13,6.13,0,0,0,6.13-6.13Zm-99.32-24.08a1.76,1.76,0,0,1,.17-2.47,1.84,1.84,0,0,1,.76-.39l4.19-1,2.2-3.68a1.75,1.75,0,0,1,2.4-.6,1.72,1.72,0,0,1,.6.6l2.2,3.68,4.19,1a1.75,1.75,0,0,1,1.31,2.1,1.71,1.71,0,0,1-.38.76L444.25,129l.39,4.28a1.75,1.75,0,0,1-1.58,1.9,1.78,1.78,0,0,1-.85-.14l-3.95-1.68L434.31,135a1.75,1.75,0,0,1-2.3-.92,1.71,1.71,0,0,1-.13-.84l.39-4.28Zm4.57-.1,1.39,1.59a1.73,1.73,0,0,1,.42,1.31l-.19,2.1,1.95-.83a1.72,1.72,0,0,1,1.37,0l1.95.83-.19-2.11a1.72,1.72,0,0,1,.42-1.3l1.39-1.6-2.06-.47a1.75,1.75,0,0,1-1.11-.81l-1.08-1.81-1.09,1.81a1.7,1.7,0,0,1-1.11.81Zm23.56.1a1.75,1.75,0,0,1,.17-2.47,1.84,1.84,0,0,1,.76-.39l4.18-1,2.2-3.68a1.76,1.76,0,0,1,2.41-.6,1.7,1.7,0,0,1,.59.6l2.2,3.68,4.19,1a1.77,1.77,0,0,1,1.32,2.1,1.84,1.84,0,0,1-.39.76L472.38,129l.38,4.28a1.74,1.74,0,0,1-2.43,1.76l-3.95-1.68L462.43,135a1.76,1.76,0,0,1-2.43-1.76l.39-4.28Zm4.56-.1,1.39,1.59a1.74,1.74,0,0,1,.43,1.31l-.19,2.1,1.94-.83a1.74,1.74,0,0,1,1.38,0l1.94.83-.19-2.1a1.74,1.74,0,0,1,.43-1.31l1.38-1.59-2.06-.47a1.79,1.79,0,0,1-1.11-.81l-1.08-1.81-1.09,1.81a1.76,1.76,0,0,1-1.11.81Zm23.56.1a1.75,1.75,0,0,1,.17-2.47,1.84,1.84,0,0,1,.76-.39l4.19-1,2.2-3.68a1.75,1.75,0,0,1,2.4-.6,1.72,1.72,0,0,1,.6.6l2.2,3.68,4.19,1a1.75,1.75,0,0,1,1.31,2.1,1.82,1.82,0,0,1-.38.76L500.5,129l.39,4.28a1.75,1.75,0,0,1-2.44,1.76l-3.94-1.68L490.56,135a1.75,1.75,0,0,1-2.3-.92,1.71,1.71,0,0,1-.13-.84l.38-4.28Zm4.57-.1,1.38,1.59a1.74,1.74,0,0,1,.43,1.31l-.19,2.1,1.94-.83a1.83,1.83,0,0,1,1.38,0l1.94.83-.19-2.1a1.78,1.78,0,0,1,.43-1.31l1.39-1.59-2.06-.47a1.74,1.74,0,0,1-1.11-.81l-1.09-1.81-1.08,1.81a1.79,1.79,0,0,1-1.11.81Z"/></g><path class="cls-17" d="M151.08,146.59a3.23,3.23,0,0,1-.53,0,3.14,3.14,0,0,1-2.52-3.63A63.43,63.43,0,0,0,138.52,97a3.17,3.17,0,0,1,.91-4.34,3.06,3.06,0,0,1,4.27.92,72.72,72.72,0,0,1,11.47,38.64v.06a74.09,74.09,0,0,1-1,11.71A3.09,3.09,0,0,1,151.08,146.59Zm-7.38,24.34a72.19,72.19,0,0,0,6.12-11.81,3.15,3.15,0,0,0-1.68-4.09,3.07,3.07,0,0,0-4,1.7,66.41,66.41,0,0,1-5.59,10.79,3.16,3.16,0,0,0,.91,4.33,3,3,0,0,0,4.27-.92Zm-15-8.16A56.51,56.51,0,0,0,138,132.3v-.08a56.51,56.51,0,0,0-9.34-30.47,3.06,3.06,0,0,0-4.28-.85,3.15,3.15,0,0,0-.85,4.34,48.18,48.18,0,0,1,0,54,3.16,3.16,0,0,0,.85,4.35,3,3,0,0,0,1.71.53A3.07,3.07,0,0,0,128.69,162.77Zm-13.6-13.08a5.38,5.38,0,0,0,3.52-3.3,38.72,38.72,0,0,0-4.52-35.62,3.08,3.08,0,0,0-4.31-.77,3.16,3.16,0,0,0-.76,4.36,32.75,32.75,0,0,1,5.83,18,32.42,32.42,0,0,1-1.64,10.76L84.86,121a4.65,4.65,0,0,0-4.33-.76,4.76,4.76,0,0,0-3.06,3.2,36.22,36.22,0,0,0-1.39,9.93c0,7.41,4.18,14,4.35,14.32a3.06,3.06,0,0,0,4.27.92,3.16,3.16,0,0,0,.92-4.33c0-.05-3.36-5.38-3.36-10.91a30,30,0,0,1,.61-6l27.52,21.45a5.25,5.25,0,0,0,3.22,1.12A5.06,5.06,0,0,0,115.09,149.69Z"/></g></g></svg>