<svg xmlns="http://www.w3.org/2000/svg" viewBox="0 0 264.997 208.741"><g id="Layer_2" data-name="Layer 2"><g id="Layer_1-2" data-name="Layer 1"><path d="M229.246,56.911H31.279a3.621,3.621,0,0,0-3.621,3.621h0v67.689a55.169,55.169,0,0,0,28.194,48.17H3.621A3.621,3.621,0,0,0,0,180.012v.006a28.761,28.761,0,0,0,28.722,28.723H194.706a28.761,28.761,0,0,0,28.728-28.723,3.619,3.619,0,0,0-3.617-3.621H167.582a55.14,55.14,0,0,0,27.979-43.537l38.339-5.053a35.591,35.591,0,0,0-4.654-70.9Zm-33.47,23.8h33.47a11.795,11.795,0,0,1,1.542,23.505l-35.012,4.624Zm-1.07,120.786H28.722a21.521,21.521,0,0,1-21.176-17.86H215.888A21.52,21.52,0,0,1,194.706,201.493ZM163,170.674l-10.772,5.717H71.2l-10.772-5.717A47.962,47.962,0,0,1,34.9,128.221V64.141H188.534v64.08c0,.282-.023.559-.029.838l-.019.5v.025A47.934,47.934,0,0,1,163,170.674Zm69.951-50.043-37.178,4.9v-9.392l35.968-4.741a19.037,19.037,0,0,0-2.483-37.929H195.776V64.153h33.47a28.349,28.349,0,0,1,3.708,56.478Z" style="fill:#ffe458"/><path d="M120.968,95.159a24.3,24.3,0,0,0-34.36,34.37h0l15.858,15.859a24.3,24.3,0,0,0,34.36-34.371Zm-5.121,5.121,15.858,15.859a17.042,17.042,0,0,1,2.276,21.28L94.56,98a17.041,17.041,0,0,1,21.279,2.276ZM107.6,140.258,91.737,124.4a17.04,17.04,0,0,1-2.276-21.28l39.405,39.421A17.041,17.041,0,0,1,107.6,140.258Z" style="fill:#ffe458"/><path d="M79.491,60.531a3.621,3.621,0,1,0,7.242,0,9.431,9.431,0,0,1,3.244-7.1,16.506,16.506,0,0,0,.39-23.34c-.128-.132-.257-.262-.39-.39a9.4,9.4,0,0,1-.949-13.266,9.562,9.562,0,0,1,.949-.95A16.453,16.453,0,0,0,95.008,3.621a3.621,3.621,0,1,0-7.242,0,9.568,9.568,0,0,1-3.245,7.108,16.508,16.508,0,0,0-.391,23.343c.128.133.259.263.391.391a9.568,9.568,0,0,1,3.245,7.108,9.449,9.449,0,0,1-3.245,7.1A16.43,16.43,0,0,0,79.491,60.531Z" style="fill:#ffe458"/><path d="M109.69,60.531a3.621,3.621,0,1,0,7.242,0,9.428,9.428,0,0,1,3.245-7.1,16.506,16.506,0,0,0,.389-23.34q-.191-.2-.389-.39a9.4,9.4,0,0,1,0-14.216,16.452,16.452,0,0,0,5.03-11.867,3.621,3.621,0,0,0-7.242,0,9.556,9.556,0,0,1-3.247,7.108,16.513,16.513,0,0,0-.385,23.349c.126.131.255.259.385.385a9.557,9.557,0,0,1,3.247,7.108,9.449,9.449,0,0,1-3.245,7.1A16.419,16.419,0,0,0,109.69,60.531Z" style="fill:#ffe458"/><path d="M139.889,60.531a3.621,3.621,0,1,0,7.242,0,9.428,9.428,0,0,1,3.245-7.1,16.5,16.5,0,0,0,.392-23.337q-.192-.2-.392-.393a9.409,9.409,0,0,1,0-14.216,16.447,16.447,0,0,0,5.032-11.867,3.621,3.621,0,1,0-7.242,0,9.564,9.564,0,0,1-3.245,7.108,16.51,16.51,0,0,0-.391,23.343q.194.2.391.391a9.564,9.564,0,0,1,3.245,7.108,9.446,9.446,0,0,1-3.245,7.1A16.421,16.421,0,0,0,139.889,60.531Z" style="fill:#ffe458"/></g></g></svg>