<svg xmlns="http://www.w3.org/2000/svg" viewBox="0 0 264.997 208.741"><g id="Layer_2" data-name="Layer 2"><g id="Layer_1-2" data-name="Layer 1"><g id="Layer_2-2" data-name="Layer 2"><g id="Layer_1-2-2" data-name="Layer 1-2"><path d="M87.692,64.153a3.622,3.622,0,0,1-3.622-3.621h0A16.432,16.432,0,0,1,89.1,48.674a9.437,9.437,0,0,0,3.244-7.1c-.019-2.723-1.2-6.309-3.244-8.108a15.327,15.327,0,0,1-1.06-21.648q.324-.357.669-.694c.128-.133.259-.263.391-.391a9.556,9.556,0,0,0,3.244-7.109,3.621,3.621,0,1,1,7.242-.006v.006a16.441,16.441,0,0,1-5.03,11.867c-3.925,3.4-4.35,8.34-.949,12.266a9.446,9.446,0,0,0,.949.949c6.553,6.337,6.727,17.787.39,24.339q-.192.2-.39.39a9.439,9.439,0,0,0-3.244,7.1A3.618,3.618,0,0,1,87.7,64.156h0Z" style="fill:#c27b48"/><path d="M117.887,64.153a3.622,3.622,0,0,1-3.622-3.621h0A16.427,16.427,0,0,1,119.3,48.674a9.443,9.443,0,0,0,3.245-7.1c-.019-2.724-1.2-6.31-3.247-8.108a15.33,15.33,0,0,1-1.055-21.654q.324-.357.67-.694c.126-.131.255-.259.385-.385a9.556,9.556,0,0,0,3.247-7.108,3.621,3.621,0,1,1,7.242-.006v.006a16.442,16.442,0,0,1-5.031,11.867c-3.925,3.4-4.35,8.34-.949,12.266a9.446,9.446,0,0,0,.949.949c6.553,6.337,6.728,17.787.39,24.339q-.189.2-.39.39a9.439,9.439,0,0,0-3.244,7.1A3.619,3.619,0,0,1,117.887,64.153Z" style="fill:#c27b48"/><path d="M148.086,64.153a3.618,3.618,0,0,1-3.621-3.616h0A16.428,16.428,0,0,1,149.5,48.679a9.443,9.443,0,0,0,3.245-7.1c-.021-2.723-1.2-6.309-3.245-8.108a15.327,15.327,0,0,1-1.06-21.648q.324-.357.669-.694c.128-.133.259-.263.391-.391a9.566,9.566,0,0,0,3.245-7.108,3.621,3.621,0,0,1,7.242,0A16.447,16.447,0,0,1,154.953,15.5c-3.925,3.4-4.348,8.347-.943,12.272a9.432,9.432,0,0,0,.943.943c6.553,6.336,6.728,17.784.393,24.336q-.195.2-.393.393a9.436,9.436,0,0,0-3.245,7.1A3.619,3.619,0,0,1,148.086,64.153Z" style="fill:#c27b48"/><path d="M84.064,60.532a3.621,3.621,0,0,0,7.241,0,9.434,9.434,0,0,1,3.246-7.1c6.553-6.337,6.726-17.787.39-24.339-.128-.133-.259-.263-.39-.39-3.927-3.4-4.351-8.341-.949-12.266a9.142,9.142,0,0,1,.949-.949,16.455,16.455,0,0,0,5.03-11.867,3.621,3.621,0,0,0-7.242,0,9.566,9.566,0,0,1-3.245,7.108,15.33,15.33,0,0,0-1.059,21.652q.324.356.668.69c.128.132.259.263.391.391,2.044,1.8,3.224,5.385,3.245,8.108a9.442,9.442,0,0,1-3.245,7.1A16.427,16.427,0,0,0,84.064,60.532Z" style="fill:#c27b48"/><path d="M114.263,60.532a3.621,3.621,0,1,0,7.242.007v-.007a9.439,9.439,0,0,1,3.244-7.1c6.554-6.337,6.728-17.787.39-24.339-.127-.133-.258-.263-.39-.39-3.925-3.4-4.349-8.341-.948-12.266a9.542,9.542,0,0,1,.948-.949A16.446,16.446,0,0,0,129.78,3.621a3.621,3.621,0,0,0-7.242,0,9.559,9.559,0,0,1-3.247,7.108,15.331,15.331,0,0,0-1.055,21.655q.324.357.67.693c.126.13.254.259.385.385,2.045,1.8,3.226,5.384,3.247,8.108a9.442,9.442,0,0,1-3.245,7.1A16.426,16.426,0,0,0,114.263,60.532Z" style="fill:#c27b48"/><path d="M144.463,60.532a3.621,3.621,0,1,0,7.242,0,9.436,9.436,0,0,1,3.245-7.1c6.552-6.336,6.728-17.784.393-24.336q-.195-.2-.393-.393c-3.925-3.405-4.349-8.347-.943-12.272a9.327,9.327,0,0,1,.943-.943,16.445,16.445,0,0,0,5.037-11.864,3.621,3.621,0,1,0-7.242,0,9.566,9.566,0,0,1-3.245,7.108,15.328,15.328,0,0,0-1.06,21.649q.324.357.669.693c.128.132.258.263.391.391,2.045,1.8,3.224,5.385,3.245,8.108a9.443,9.443,0,0,1-3.245,7.1A16.422,16.422,0,0,0,144.463,60.532Z" style="fill:#c27b48"/><path d="M31.28,60.53H192.158v67.693a51.68,51.68,0,0,1-27.452,45.65l-11.571,6.146H70.3l-11.569-6.14A51.678,51.678,0,0,1,31.28,128.223Z" style="fill:#efe6de"/><path d="M194.709,205.113H28.722a25.1,25.1,0,0,1-25.1-25.094h216.2a25.1,25.1,0,0,1-25.106,25.094h-.007Z" style="fill:#5d5360"/><path d="M229.249,60.536H192.158V77.09h37.091a15.424,15.424,0,0,1,2.016,30.715l-39.107,5.158v15.26c0,.484-.038.962-.05,1.449l41.321-5.449a31.977,31.977,0,0,0-4.18-63.68Z" style="fill:#dfccbf"/><path d="M89.169,97.721h0a20.675,20.675,0,0,1,29.239,0h0l15.858,15.859a20.674,20.674,0,0,1,0,29.236h0a20.672,20.672,0,0,1-29.236,0h0L89.169,126.963C82.617,119.244,84.077,106.678,89.169,97.721Z" style="fill:#c27b48"/><path d="M131.469,145.143a19.748,19.748,0,0,0,5.121-5.122L91.968,95.4a20.809,20.809,0,0,0-2.8,2.321h0a20.879,20.879,0,0,0-2.322,2.8Z" style="fill:#966857"/><path d="M78.835,56.9a3.621,3.621,0,0,0,0,7.242H89.289a3.621,3.621,0,0,0,0-7.242Z"/><path d="M229.249,56.915H115.857a3.621,3.621,0,0,0,0,7.242h72.679v64.066c0,.282-.022.559-.029.838l-.018.5v.025A47.932,47.932,0,0,1,163,170.674l-10.772,5.717H71.2l-10.772-5.717A47.951,47.951,0,0,1,34.9,128.223V64.145H52.247a3.621,3.621,0,0,0,0-7.242H31.28a3.621,3.621,0,0,0-3.621,3.621h0v67.7a55.163,55.163,0,0,0,28.194,48.168H3.621A3.622,3.622,0,0,0,0,180.012v.007a28.761,28.761,0,0,0,28.722,28.722H194.709a28.761,28.761,0,0,0,28.728-28.722,3.621,3.621,0,0,0-3.617-3.622H167.584a55.129,55.129,0,0,0,27.979-43.534l38.34-5.053a35.59,35.59,0,0,0-4.654-70.894Zm-34.54,144.577H28.722A21.519,21.519,0,0,1,7.546,183.633H215.891a21.518,21.518,0,0,1-21.182,17.859Zm38.248-80.859-37.178,4.9v-9.392l35.968-4.74a3.622,3.622,0,1,0-.946-7.182h0l-35.022,4.624V80.711h33.47a11.818,11.818,0,0,1,11.8,11.794,3.621,3.621,0,0,0,7.242,0,19.067,19.067,0,0,0-19.037-19.036h-33.47V64.157h33.47a28.348,28.348,0,0,1,3.708,56.476Z"/><path d="M79.493,112.342a24.145,24.145,0,0,0,7.116,17.174l15.858,15.858a24.3,24.3,0,0,0,34.361-34.354L120.97,95.163a24.3,24.3,0,0,0-41.477,17.174ZM107.6,140.263,91.739,124.4a17.036,17.036,0,0,1-2.276-21.279l39.405,39.42A17.042,17.042,0,0,1,107.6,140.263Zm8.26-39.976,15.858,15.858a17.043,17.043,0,0,1,2.276,21.28l-39.43-39.42a17.041,17.041,0,0,1,21.279,2.276Z"/></g></g></g></g></svg>