<?xml version="1.0" encoding="utf-8"?>
<!-- Generator: Adobe Illustrator 24.1.1, SVG Export Plug-In . SVG Version: 6.00 Build 0)  -->
<svg version="1.1" id="Layer_1" xmlns="http://www.w3.org/2000/svg" xmlns:xlink="http://www.w3.org/1999/xlink" x="0px" y="0px"
	 viewBox="0 0 512 512" style="enable-background:new 0 0 512 512;" xml:space="preserve">
<style type="text/css">
	.st0{fill:#FFE458;}
</style>
<g>
	<path class="st0" d="M352.9,217.7h-37c0,0,0,0-0.1,0H154.9c-2,0-3.6,1.6-3.6,3.6l0,0V289c0,20,10.8,38.4,28.2,48.2h-52.2
		c-2,0-3.6,1.6-3.6,3.6c0,0,0,0,0,0c0,15.9,12.9,28.7,28.7,28.7h166c15.9,0,28.7-12.9,28.7-28.7c0-2-1.6-3.6-3.6-3.6c0,0,0,0,0,0
		h-52.2c16-9,26.5-25.3,28-43.5l38.3-5.1c19.5-2.5,33.3-20.3,30.8-39.8C386.1,231,370.9,217.7,352.9,217.7L352.9,217.7z
		 M319.4,241.5h33.5c6.5-0.1,11.9,5.1,11.9,11.7c0.1,6-4.4,11.1-10.4,11.8l-35,4.6V241.5z M318.3,362.3h-166
		c-10.5,0-19.4-7.6-21.2-17.9h208.3C337.8,354.8,328.8,362.3,318.3,362.3z M286.6,331.5l-10.8,5.7h-81l-10.8-5.7
		c-15.7-8.3-25.6-24.7-25.5-42.5V225h153.6V289c0,0.3,0,0.6,0,0.8l0,0.5c0,0,0,0,0,0C311.7,307.7,301.9,323.4,286.6,331.5z
		 M356.6,281.5l-37.2,4.9V277l36-4.7c10.4-1.3,17.8-10.8,16.6-21.2c-1.2-9.6-9.4-16.8-19-16.7h-33.5V225h33.5
		c15.7-0.1,28.4,12.5,28.5,28.2C381.5,267.5,370.9,279.7,356.6,281.5z"/>
	<path class="st0" d="M244.6,256c-9.5-9.5-24.9-9.5-34.4,0c-9.5,9.5-9.5,24.9,0,34.4l0,0l15.9,15.9c9.5,9.5,24.9,9.5,34.4,0
		c9.5-9.5,9.5-24.9,0-34.4L244.6,256z M239.5,261.1l15.9,15.9c5.7,5.7,6.6,14.5,2.3,21.3l-39.4-39.4
		C224.9,254.5,233.8,255.4,239.5,261.1L239.5,261.1z M231.2,301.1l-15.9-15.9c-5.7-5.7-6.6-14.5-2.3-21.3l39.4,39.4
		C245.8,307.7,236.9,306.8,231.2,301.1z"/>
	<path class="st0" d="M203.1,221.4c0,2,1.6,3.6,3.6,3.6c2,0,3.6-1.6,3.6-3.6c0-2.7,1.2-5.3,3.2-7.1c6.6-6.3,6.7-16.8,0.4-23.3
		c-0.1-0.1-0.3-0.3-0.4-0.4c-3.9-3.4-4.4-9.3-0.9-13.3c0.3-0.3,0.6-0.7,0.9-0.9c3.2-3.1,5-7.4,5-11.9c0-2-1.6-3.6-3.6-3.6
		c-2,0-3.6,1.6-3.6,3.6c0,2.7-1.2,5.3-3.2,7.1c-6.6,6.3-6.7,16.8-0.4,23.3c0.1,0.1,0.3,0.3,0.4,0.4c2,1.8,3.2,4.4,3.2,7.1
		c0,2.7-1.2,5.3-3.2,7.1C204.9,212.6,203.1,216.9,203.1,221.4z"/>
	<path class="st0" d="M233.3,221.4c0,2,1.6,3.6,3.6,3.6c2,0,3.6-1.6,3.6-3.6c0-2.7,1.2-5.3,3.2-7.1c6.6-6.3,6.7-16.8,0.4-23.3
		c-0.1-0.1-0.3-0.3-0.4-0.4c-3.9-3.4-4.4-9.3-0.9-13.3c0.3-0.3,0.6-0.7,0.9-0.9c3.2-3.1,5-7.4,5-11.9c0-2-1.6-3.6-3.6-3.6
		c-2,0-3.6,1.6-3.6,3.6c0,2.7-1.2,5.3-3.2,7.1c-6.6,6.3-6.7,16.8-0.4,23.3c0.1,0.1,0.3,0.3,0.4,0.4c2,1.8,3.2,4.4,3.2,7.1
		c0,2.7-1.2,5.3-3.2,7.1C235.1,212.6,233.3,216.9,233.3,221.4z"/>
	<path class="st0" d="M263.5,221.4c0,2,1.6,3.6,3.6,3.6s3.6-1.6,3.6-3.6c0-2.7,1.2-5.3,3.2-7.1c6.6-6.3,6.7-16.8,0.4-23.3
		c-0.1-0.1-0.3-0.3-0.4-0.4c-3.9-3.4-4.3-9.3-0.9-13.3c0.3-0.3,0.6-0.7,0.9-0.9c3.2-3.1,5-7.4,5-11.9c0-2-1.6-3.6-3.6-3.6
		c-2,0-3.6,1.6-3.6,3.6c0,2.7-1.2,5.3-3.2,7.1c-6.6,6.3-6.7,16.8-0.4,23.3c0.1,0.1,0.3,0.3,0.4,0.4c2,1.8,3.2,4.4,3.2,7.1
		c0,2.7-1.2,5.3-3.2,7.1C265.3,212.6,263.5,216.9,263.5,221.4z"/>
</g>
</svg>
