<?xml version="1.0" encoding="utf-8"?>
<!-- Generator: Adobe Illustrator 24.1.1, SVG Export Plug-In . SVG Version: 6.00 Build 0)  -->
<svg version="1.1" id="Layer_1" xmlns="http://www.w3.org/2000/svg" xmlns:xlink="http://www.w3.org/1999/xlink" x="0px" y="0px"
	 viewBox="0 0 265 262.1" style="enable-background:new 0 0 265 262.1;" xml:space="preserve">
<style type="text/css">
	.st0{fill:#C27B48;}
	.st1{fill:#EFE6DE;}
	.st2{fill:#5D5360;}
	.st3{fill:#DFCCBF;}
	.st4{fill:#966857;}
</style>
<g id="Layer_2_1_">
	<g id="Layer_1-2">
		<path class="st0" d="M87.7,117.5c-2,0-3.6-1.6-3.6-3.6l0,0c0-4.5,1.8-8.8,5-11.9c2.1-1.8,3.2-4.4,3.2-7.1c0-2.7-1.2-6.3-3.2-8.1
			c-6.3-5.7-6.7-15.4-1.1-21.6c0.2-0.2,0.4-0.5,0.7-0.7c0.1-0.1,0.3-0.3,0.4-0.4c2-1.8,3.2-4.4,3.2-7.1c0-2,1.6-3.6,3.6-3.6
			c2,0,3.6,1.6,3.6,3.6c0,0,0,0,0,0c0,4.5-1.8,8.8-5,11.9c-3.9,3.4-4.3,8.3-0.9,12.3c0.3,0.3,0.6,0.7,0.9,0.9
			c6.6,6.3,6.7,17.8,0.4,24.3c-0.1,0.1-0.3,0.3-0.4,0.4c-2.1,1.8-3.2,4.4-3.2,7.1C91.3,115.9,89.7,117.5,87.7,117.5L87.7,117.5
			L87.7,117.5z"/>
		<path class="st0" d="M117.9,117.5c-2,0-3.6-1.6-3.6-3.6l0,0c0-4.5,1.8-8.8,5-11.9c2.1-1.8,3.2-4.4,3.2-7.1c0-2.7-1.2-6.3-3.2-8.1
			c-6.3-5.7-6.7-15.4-1.1-21.7c0.2-0.2,0.4-0.5,0.7-0.7c0.1-0.1,0.3-0.3,0.4-0.4c2-1.8,3.2-4.4,3.2-7.1c0-2,1.6-3.6,3.6-3.6
			c2,0,3.6,1.6,3.6,3.6c0,0,0,0,0,0c0,4.5-1.8,8.8-5,11.9c-3.9,3.4-4.3,8.3-0.9,12.3c0.3,0.3,0.6,0.7,0.9,0.9
			c6.6,6.3,6.7,17.8,0.4,24.3c-0.1,0.1-0.3,0.3-0.4,0.4c-2.1,1.8-3.2,4.4-3.2,7.1C121.5,115.9,119.9,117.5,117.9,117.5z"/>
		<path class="st0" d="M148.1,117.5c-2,0-3.6-1.6-3.6-3.6l0,0c0-4.5,1.8-8.8,5-11.9c2.1-1.8,3.2-4.4,3.2-7.1c0-2.7-1.2-6.3-3.2-8.1
			c-6.3-5.7-6.7-15.4-1.1-21.6c0.2-0.2,0.4-0.5,0.7-0.7c0.1-0.1,0.3-0.3,0.4-0.4c2-1.8,3.2-4.4,3.2-7.1c0-2,1.6-3.6,3.6-3.6
			S160,55,160,57c0,4.5-1.8,8.8-5,11.9c-3.9,3.4-4.3,8.3-0.9,12.3c0.3,0.3,0.6,0.7,0.9,0.9c6.6,6.3,6.7,17.8,0.4,24.3
			c-0.1,0.1-0.3,0.3-0.4,0.4c-2.1,1.8-3.2,4.4-3.2,7.1C151.7,115.9,150.1,117.5,148.1,117.5z"/>
		<path class="st0" d="M84.1,113.9c0,2,1.6,3.6,3.6,3.6c2,0,3.6-1.6,3.6-3.6c0-2.7,1.2-5.3,3.2-7.1c6.6-6.3,6.7-17.8,0.4-24.3
			c-0.1-0.1-0.3-0.3-0.4-0.4c-3.9-3.4-4.4-8.3-0.9-12.3c0.3-0.3,0.6-0.7,0.9-0.9c3.2-3.1,5-7.4,5-11.9c0-2-1.6-3.6-3.6-3.6
			c-2,0-3.6,1.6-3.6,3.6c0,2.7-1.2,5.3-3.2,7.1c-6.3,5.7-6.7,15.4-1.1,21.7c0.2,0.2,0.4,0.5,0.7,0.7c0.1,0.1,0.3,0.3,0.4,0.4
			c2,1.8,3.2,5.4,3.2,8.1c0,2.7-1.2,5.3-3.2,7.1C85.9,105.1,84.1,109.4,84.1,113.9z"/>
		<path class="st0" d="M114.3,113.9c0,2,1.6,3.6,3.6,3.6c2,0,3.6-1.6,3.6-3.6c0,0,0,0,0,0c0-2.7,1.2-5.3,3.2-7.1
			c6.6-6.3,6.7-17.8,0.4-24.3c-0.1-0.1-0.3-0.3-0.4-0.4c-3.9-3.4-4.3-8.3-0.9-12.3c0.3-0.3,0.6-0.7,0.9-0.9c3.2-3.1,5-7.4,5-11.9
			c0-2-1.7-3.6-3.7-3.6c-2,0-3.5,1.6-3.6,3.6c0,2.7-1.2,5.3-3.2,7.1c-6.3,5.7-6.7,15.4-1.1,21.7c0.2,0.2,0.4,0.5,0.7,0.7
			c0.1,0.1,0.3,0.3,0.4,0.4c2,1.8,3.2,5.4,3.2,8.1c0,2.7-1.2,5.3-3.2,7.1C116.1,105.1,114.3,109.4,114.3,113.9z"/>
		<path class="st0" d="M144.5,113.9c0,2,1.6,3.6,3.6,3.6s3.6-1.6,3.6-3.6c0-2.7,1.2-5.3,3.2-7.1c6.6-6.3,6.7-17.8,0.4-24.3
			c-0.1-0.1-0.3-0.3-0.4-0.4c-3.9-3.4-4.3-8.3-0.9-12.3c0.3-0.3,0.6-0.7,0.9-0.9c3.2-3.1,5-7.4,5-11.9c0-2-1.6-3.6-3.6-3.6
			s-3.6,1.6-3.6,3.6c0,2.7-1.2,5.3-3.2,7.1c-6.3,5.7-6.7,15.4-1.1,21.6c0.2,0.2,0.4,0.5,0.7,0.7c0.1,0.1,0.3,0.3,0.4,0.4
			c2,1.8,3.2,5.4,3.2,8.1c0,2.7-1.2,5.3-3.2,7.1C146.3,105.1,144.5,109.4,144.5,113.9z"/>
		<path class="st1" d="M31.3,113.9h160.9v67.7c0,19.1-10.6,36.7-27.5,45.6l-11.6,6.1H70.3l-11.6-6.1c-16.9-9-27.5-26.5-27.5-45.7
			V113.9z"/>
		<path class="st2" d="M194.7,258.5h-166c-13.9,0-25.1-11.2-25.1-25.1h216.2C219.8,247.2,208.6,258.5,194.7,258.5
			C194.7,258.5,194.7,258.5,194.7,258.5L194.7,258.5z"/>
		<path class="st3" d="M229.2,113.9h-37.1v16.6h37.1c8.5,0,15.4,6.9,15.4,15.4c0,7.7-5.7,14.3-13.4,15.3l-39.1,5.2v15.3
			c0,0.5,0,1-0.1,1.4l41.3-5.4c17.5-2.3,29.8-18.4,27.5-35.9C258.9,125.8,245.3,113.9,229.2,113.9L229.2,113.9z"/>
		<path class="st0" d="M89.2,151.1L89.2,151.1c8.1-8.1,21.2-8.1,29.2,0c0,0,0,0,0,0l0,0l15.9,15.9c8.1,8.1,8.1,21.2,0,29.2l0,0l0,0
			c-8.1,8.1-21.2,8.1-29.2,0l0,0l-15.9-15.9C82.6,172.6,84.1,160,89.2,151.1z"/>
		<path class="st4" d="M131.5,198.5c2-1.4,3.7-3.1,5.1-5.1L92,148.7c-1,0.7-1.9,1.5-2.8,2.3l0,0c-0.9,0.9-1.6,1.8-2.3,2.8
			L131.5,198.5z"/>
		<path d="M78.8,110.2c-2,0-3.6,1.6-3.6,3.6c0,2,1.6,3.6,3.6,3.6h10.5c2,0,3.6-1.6,3.6-3.6c0-2-1.6-3.6-3.6-3.6H78.8z"/>
		<path d="M229.2,110.3H115.9c-2,0-3.6,1.6-3.6,3.6c0,2,1.6,3.6,3.6,3.6h72.7v64.1c0,0.3,0,0.6,0,0.8l0,0.5v0
			c-0.5,17.3-10.2,33-25.5,41.1l-10.8,5.7h-81L60.4,224c-15.7-8.3-25.6-24.7-25.5-42.5v-64.1h17.3c2,0,3.6-1.6,3.6-3.6
			c0-2-1.6-3.6-3.6-3.6h-21c-2,0-3.6,1.6-3.6,3.6l0,0l0,0v67.7c0,20,10.8,38.4,28.2,48.2H3.6c-2,0-3.6,1.6-3.6,3.6v0
			c0,15.9,12.9,28.7,28.7,28.7h166c15.9,0,28.7-12.9,28.7-28.7c0-2-1.6-3.6-3.6-3.6h-52.2c16-9,26.5-25.3,28-43.5l38.3-5.1
			c19.5-2.5,33.3-20.3,30.8-39.8C262.4,123.5,247.2,110.2,229.2,110.3L229.2,110.3z M194.7,254.8h-166c-10.5,0-19.4-7.6-21.2-17.9
			h208.3C214.1,247.3,205.2,254.8,194.7,254.8L194.7,254.8z M233,174l-37.2,4.9v-9.4l36-4.7c2-0.3,3.4-2.1,3.1-4.1
			c-0.3-2-2.1-3.4-4.1-3.1l0,0l-35,4.6V134h33.5c6.5,0,11.8,5.3,11.8,11.8c0,2,1.6,3.6,3.6,3.6s3.6-1.6,3.6-3.6c0-10.5-8.5-19-19-19
			h-33.5v-9.3h33.5c15.7-0.1,28.4,12.5,28.5,28.2C257.9,160,247.2,172.2,233,174L233,174z"/>
		<path d="M79.5,165.7c0,6.4,2.5,12.6,7.1,17.2l15.9,15.9c9.7,9.3,25.1,9,34.4-0.7c9-9.4,9-24.2,0-33.6L121,148.5
			c-9.5-9.5-24.9-9.5-34.4,0C82.1,153.1,79.5,159.2,79.5,165.7L79.5,165.7z M107.6,193.6l-15.9-15.9c-5.7-5.7-6.6-14.5-2.3-21.3
			l39.4,39.4C122.1,200.2,113.3,199.3,107.6,193.6z M115.9,153.6l15.9,15.9c5.7,5.7,6.6,14.5,2.3,21.3l-39.4-39.4
			C101.3,147,110.2,147.9,115.9,153.6L115.9,153.6z"/>
	</g>
</g>
</svg>
